<svg width="42" height="44" viewBox="0 0 42 44" fill="none" xmlns="http://www.w3.org/2000/svg">
<path d="M4.41667 37.6557V4.32237H8.58333V18.9057L13.7917 15.7807L19 18.9057V4.32237H29.4167V19.0724C30.1042 18.9682 30.7917 18.9057 31.5 18.9057C32.2083 18.9057 32.8958 18.9682 33.5833 19.0724V4.32237C33.5833 2.0307 31.7083 0.155701 29.4167 0.155701H4.41667C2.125 0.155701 0.25 2.0307 0.25 4.32237V37.6557C0.25 39.9474 2.125 41.8224 4.41667 41.8224H19.5417C18.6667 40.5724 17.9792 39.1557 17.5208 37.6557H4.41667ZM31.5 23.0724C25.75 23.0724 21.0833 27.739 21.0833 33.489C21.0833 39.239 25.75 43.9057 31.5 43.9057C37.25 43.9057 41.9167 39.239 41.9167 33.489C41.9167 27.739 37.25 23.0724 31.5 23.0724ZM28.8958 38.6974V28.2807L37.2292 33.489L28.8958 38.6974Z" fill="#FF206E"/>
</svg>
