<svg width="38" height="46" viewBox="0 0 38 46" fill="none" xmlns="http://www.w3.org/2000/svg">
<path d="M2.75 4.75985V41.2182C2.75 41.7707 2.96949 42.3006 3.36019 42.6913C3.7509 43.082 4.2808 43.3015 4.83333 43.3015H7.26042V2.67651H4.83333C4.2808 2.67651 3.7509 2.89601 3.36019 3.28671C2.96949 3.67741 2.75 4.20731 2.75 4.75985V4.75985ZM7.26042 2.67651V43.3015H33.1667C33.7192 43.3015 34.2491 43.082 34.6398 42.6913C35.0305 42.3006 35.25 41.7707 35.25 41.2182V4.75985C35.25 4.20731 35.0305 3.67741 34.6398 3.28671C34.2491 2.89601 33.7192 2.67651 33.1667 2.67651H7.26042Z" stroke="#FF206E" stroke-width="5" stroke-linecap="round" stroke-linejoin="round"/>
</svg>
