<svg width="50" height="50" viewBox="0 0 50 50" fill="none" xmlns="http://www.w3.org/2000/svg">
<path d="M25 9.57648L22.7594 7.27336C17.5 1.86711 7.85629 3.73273 4.37504 10.5296C2.74066 13.7265 2.37191 18.3421 5.35629 24.2327C8.23129 29.9046 14.2125 36.6984 25 44.0984C35.7875 36.6984 41.7657 29.9046 44.6438 24.2327C47.6282 18.339 47.2625 13.7265 45.625 10.5296C42.1438 3.73273 32.5 1.86398 27.2407 7.27023L25 9.57648ZM25 47.864C-22.9156 16.2015 10.2469 -8.51102 24.45 4.56086C24.6375 4.73273 24.8219 4.91086 25 5.09523C25.1764 4.91103 25.3598 4.73381 25.55 4.56398C39.75 -8.51727 72.9157 16.1984 25 47.864Z" fill="#FF206E" stroke="#FF206E" stroke-width="3"/>
</svg>
