<svg width="42" height="33" viewBox="0 0 42 33" fill="none" xmlns="http://www.w3.org/2000/svg">
<path d="M0.25 0.364014V3.56896H35.5044V29.2085H13.0698V32.4135H41.9143V29.2085H38.7093V0.364014H0.25ZM6.66309 5.17143C4.96461 5.17734 3.33733 5.85446 2.13601 7.05518C0.934691 8.2559 0.256757 9.88284 0.25 11.5813C0.25 15.1052 3.14086 17.9912 6.66309 17.9912C8.36073 17.9845 9.98686 17.3069 11.187 16.1061C12.3871 14.9054 13.0639 13.279 13.0698 11.5813C13.0698 8.06069 10.1821 5.17143 6.66309 5.17143ZM16.2747 6.7739V9.97885H24.2871V6.7739H16.2747ZM27.492 6.7739V9.97885H32.2994V6.7739H27.492ZM6.66309 8.37638C8.44825 8.37638 9.86484 9.79136 9.86484 11.5813C9.86484 13.3761 8.44985 14.7863 6.66309 14.7863C4.86833 14.7863 3.45495 13.3761 3.45495 11.5813C3.45495 9.79136 4.86993 8.37638 6.66309 8.37638ZM16.2747 13.1838V16.3887H32.2994V13.1838H16.2747ZM0.25 19.5937V32.4135H3.45495V22.7986H8.26236V32.4135H11.4673V23.8531L14.7748 25.603C15.7123 26.0997 16.8388 26.0981 17.7746 25.603V25.6062L23.4314 22.6143L21.9363 19.778L16.2779 22.7698L11.3167 20.1513C10.6243 19.7855 9.8531 19.5941 9.07001 19.5937H0.25Z" fill="#FF206E"/>
</svg>
